<svg xmlns="http://www.w3.org/2000/svg" xmlns:xlink="http://www.w3.org/1999/xlink" viewBox="0 0 16 16" width="16" height="18" style="" filter="none">
    
    <g>
    
<mask id="path-1-inside-1_2189_186-imc07h0sbp804kg" fill="white">
<path fill-rule="evenodd" clip-rule="evenodd" d="M6.66667 2C5.42899 2 4.24201 2.49167 3.36684 3.36684C2.49167 4.24201 2 5.42899 2 6.66667C2 7.90435 2.49167 9.09133 3.36684 9.9665C4.24201 10.8417 5.42899 11.3333 6.66667 11.3333C7.90435 11.3333 9.09133 10.8417 9.9665 9.9665C10.8417 9.09133 11.3333 7.90435 11.3333 6.66667C11.3333 5.42899 10.8417 4.24201 9.9665 3.36684C9.09133 2.49167 7.90435 2 6.66667 2ZM4.07394 4.07394C4.76158 3.38631 5.69421 3 6.66667 3C7.63913 3 8.57176 3.38631 9.25939 4.07394C9.94703 4.76158 10.3333 5.69421 10.3333 6.66667C10.3333 7.63913 9.94703 8.57176 9.25939 9.25939C8.57176 9.94703 7.63913 10.3333 6.66667 10.3333C5.69421 10.3333 4.76158 9.94703 4.07394 9.25939C3.38631 8.57176 3 7.63913 3 6.66667C3 5.69421 3.38631 4.76158 4.07394 4.07394ZM10.332 11.04C10.7226 10.6495 11.3557 10.6495 11.7462 11.04L11.9819 11.2757L11.9819 11.2757L12.6031 11.8969L12.6031 11.897L12.8462 12.1402L12.8463 12.1402L13.7891 13.083C13.3985 13.4735 12.7654 13.4735 12.3748 13.083L12.3171 13.0253L12.3125 13.0207L11.8959 12.604L11.8959 12.604L11.0683 11.7763L11.066 11.774L10.332 11.04Z"></path>
</mask>
<path d="M3.36684 3.36684L2.89543 2.89543L3.36684 3.36684ZM3.36684 9.9665L2.89543 10.4379L3.36684 9.9665ZM9.9665 3.36684L10.4379 2.89543L9.9665 3.36684ZM4.07394 4.07394L4.54535 4.54535L4.07394 4.07394ZM9.25939 4.07394L9.7308 3.60254V3.60254L9.25939 4.07394ZM9.25939 9.25939L9.7308 9.7308L9.25939 9.25939ZM4.07394 9.25939L3.60254 9.7308H3.60254L4.07394 9.25939ZM10.332 11.04L9.86063 10.5686L9.38922 11.04L9.86063 11.5114L10.332 11.04ZM11.9819 11.2757L12.4534 11.7471L12.9248 11.2757L12.4534 10.8043L11.9819 11.2757ZM11.9819 11.2757L11.5105 10.8043L11.0391 11.2757L11.5105 11.7471L11.9819 11.2757ZM12.6031 11.8969L12.1316 12.3683L12.1316 12.3683L12.6031 11.8969ZM12.6031 11.897L13.0745 11.4256L13.0745 11.4256L12.6031 11.897ZM12.8462 12.1402L12.3748 12.6115L12.8838 13.1207L13.3524 12.5741L12.8462 12.1402ZM12.8463 12.1402L13.3177 11.6688L12.8086 11.1597L12.3401 11.7063L12.8463 12.1402ZM13.7891 13.083L14.2605 13.5544L14.7319 13.083L14.2605 12.6116L13.7891 13.083ZM12.3748 13.083L12.8463 12.6116L12.8462 12.6116L12.3748 13.083ZM12.3171 13.0253L12.7885 12.5539L12.7856 12.5509L12.3171 13.0253ZM12.3125 13.0207L11.841 13.492L11.8441 13.4951L12.3125 13.0207ZM11.8959 12.604L11.4168 13.0677L11.4244 13.0753L11.8959 12.604ZM11.8959 12.604L12.375 12.1403L12.3673 12.1326L11.8959 12.604ZM11.0683 11.7763L10.5954 12.2462L10.5969 12.2477L11.0683 11.7763ZM11.066 11.774L11.5389 11.3041L11.5374 11.3026L11.066 11.774ZM3.83824 3.83824C4.58839 3.08809 5.6058 2.66667 6.66667 2.66667V1.33333C5.25218 1.33333 3.89563 1.89524 2.89543 2.89543L3.83824 3.83824ZM2.66667 6.66667C2.66667 5.6058 3.08809 4.58839 3.83824 3.83824L2.89543 2.89543C1.89524 3.89563 1.33333 5.25218 1.33333 6.66667H2.66667ZM3.83824 9.4951C3.08809 8.74495 2.66667 7.72753 2.66667 6.66667H1.33333C1.33333 8.08116 1.89524 9.43771 2.89543 10.4379L3.83824 9.4951ZM6.66667 10.6667C5.6058 10.6667 4.58839 10.2452 3.83824 9.4951L2.89543 10.4379C3.89563 11.4381 5.25218 12 6.66667 12V10.6667ZM9.4951 9.4951C8.74495 10.2452 7.72753 10.6667 6.66667 10.6667V12C8.08116 12 9.43771 11.4381 10.4379 10.4379L9.4951 9.4951ZM10.6667 6.66667C10.6667 7.72753 10.2452 8.74495 9.4951 9.4951L10.4379 10.4379C11.4381 9.43771 12 8.08116 12 6.66667H10.6667ZM9.4951 3.83824C10.2452 4.58839 10.6667 5.6058 10.6667 6.66667H12C12 5.25218 11.4381 3.89563 10.4379 2.89543L9.4951 3.83824ZM6.66667 2.66667C7.72753 2.66667 8.74495 3.08809 9.4951 3.83824L10.4379 2.89543C9.43771 1.89524 8.08116 1.33333 6.66667 1.33333V2.66667ZM6.66667 2.33333C5.5174 2.33333 4.4152 2.78988 3.60254 3.60254L4.54535 4.54535C5.10796 3.98274 5.87102 3.66667 6.66667 3.66667V2.33333ZM9.7308 3.60254C8.91814 2.78988 7.81594 2.33333 6.66667 2.33333V3.66667C7.46232 3.66667 8.22538 3.98274 8.78799 4.54535L9.7308 3.60254ZM11 6.66667C11 5.5174 10.5435 4.4152 9.7308 3.60254L8.78799 4.54535C9.3506 5.10796 9.66667 5.87102 9.66667 6.66667H11ZM9.7308 9.7308C10.5435 8.91814 11 7.81594 11 6.66667H9.66667C9.66667 7.46232 9.3506 8.22538 8.78799 8.78799L9.7308 9.7308ZM6.66667 11C7.81594 11 8.91814 10.5435 9.7308 9.7308L8.78799 8.78799C8.22538 9.3506 7.46232 9.66667 6.66667 9.66667V11ZM3.60254 9.7308C4.4152 10.5435 5.5174 11 6.66667 11V9.66667C5.87102 9.66667 5.10796 9.3506 4.54535 8.78799L3.60254 9.7308ZM2.33333 6.66667C2.33333 7.81594 2.78988 8.91814 3.60254 9.7308L4.54535 8.78799C3.98274 8.22538 3.66667 7.46232 3.66667 6.66667H2.33333ZM3.60254 3.60254C2.78988 4.4152 2.33333 5.5174 2.33333 6.66667H3.66667C3.66667 5.87102 3.98274 5.10796 4.54535 4.54535L3.60254 3.60254ZM12.2176 10.5686C11.5668 9.91775 10.5115 9.91775 9.86063 10.5686L10.8034 11.5114C10.9336 11.3813 11.1447 11.3813 11.2748 11.5114L12.2176 10.5686ZM12.4534 10.8043L12.2176 10.5686L11.2748 11.5114L11.5105 11.7471L12.4534 10.8043ZM12.4533 11.7471L12.4534 11.7471L11.5105 10.8043L11.5105 10.8043L12.4533 11.7471ZM13.0745 11.4255L12.4534 10.8044L11.5105 11.7471L12.1316 12.3683L13.0745 11.4255ZM13.0745 11.4256L13.0745 11.4255L12.1316 12.3683L12.1317 12.3684L13.0745 11.4256ZM13.3177 11.6688L13.0745 11.4256L12.1316 12.3683L12.3748 12.6115L13.3177 11.6688ZM12.3401 11.7063L12.3401 11.7063L13.3524 12.5741L13.3524 12.574L12.3401 11.7063ZM14.2605 12.6116L13.3177 11.6688L12.3748 12.6116L13.3177 13.5544L14.2605 12.6116ZM11.9034 13.5544C12.5543 14.2053 13.6096 14.2053 14.2605 13.5544L13.3177 12.6116C13.1875 12.7418 12.9764 12.7418 12.8463 12.6116L11.9034 13.5544ZM11.8457 13.4967L11.9034 13.5544L12.8462 12.6116L12.7885 12.5539L11.8457 13.4967ZM11.8441 13.4951L11.8487 13.4996L12.7856 12.5509L12.7809 12.5463L11.8441 13.4951ZM11.4244 13.0753L11.841 13.492L12.784 12.5493L12.3674 12.1327L11.4244 13.0753ZM11.4168 13.0676L11.4168 13.0676L12.375 12.1404L12.3749 12.1404L11.4168 13.0676ZM10.5969 12.2477L11.4245 13.0754L12.3673 12.1326L11.5397 11.3049L10.5969 12.2477ZM10.5931 12.2439L10.5954 12.2462L11.5412 11.3064L11.5389 11.3041L10.5931 12.2439ZM9.86063 11.5114L10.5946 12.2454L11.5374 11.3026L10.8034 10.5686L9.86063 11.5114Z" fill="white" mask="url(#path-1-inside-1_2189_186-imc07h0sbp804kg)"></path>

    </g>
  </svg>